<svg width="20" height="20" viewBox="0 0 25 25" fill="none" xmlns="http://www.w3.org/2000/svg">
<path fill-rule="evenodd" clip-rule="evenodd" d="M9.17688 0.907959C7.7659 0.908079 6.3754 1.24562 5.1214 1.89243C3.8674 2.53924 2.78626 3.47655 1.96818 4.62617C1.1501 5.77579 0.618799 7.10437 0.418613 8.50109C0.218426 9.8978 0.355154 11.3221 0.81739 12.6553C1.27963 13.9884 2.05397 15.1916 3.0758 16.1646C4.09764 17.1376 5.33735 17.8521 6.6915 18.2486C8.04565 18.645 9.47496 18.7119 10.8602 18.4436C12.2454 18.1753 13.5464 17.5796 14.6546 16.7062L22.8046 23.8562C23.001 24.0459 23.2639 24.1508 23.5369 24.1484C23.8098 24.146 24.0709 24.0366 24.2639 23.8436C24.457 23.6505 24.5664 23.3895 24.5688 23.1165C24.5712 22.8436 24.4663 22.5806 24.2766 22.3843L16.1266 15.2343C17.1551 13.9295 17.7955 12.3615 17.9745 10.7098C18.1535 9.05803 17.8638 7.38927 17.1387 5.89446C16.4136 4.39966 15.2822 3.1392 13.8742 2.25734C12.4662 1.37548 10.8383 0.907847 9.17688 0.907959ZM2.41036 9.75649C2.41036 7.9619 3.12326 6.2408 4.39222 4.97184C5.66119 3.70287 7.38229 2.98997 9.17688 2.98997C10.9715 2.98997 12.6926 3.70287 13.9615 4.97184C15.2305 6.2408 15.9434 7.9619 15.9434 9.75649C15.9434 11.5511 15.2305 13.2722 13.9615 14.5411C12.6926 15.8101 10.9715 16.523 9.17688 16.523C7.38229 16.523 5.66119 15.8101 4.39222 14.5411C3.12326 13.2722 2.41036 11.5511 2.41036 9.75649Z" fill="#3C332B"/>
</svg>
